<?xml version="1.0" standalone="no"?>
<!DOCTYPE svg PUBLIC "-//W3C//DTD SVG 20010904//EN"
 "http://www.w3.org/TR/2001/REC-SVG-20010904/DTD/svg10.dtd">
<svg version="1.0" xmlns="http://www.w3.org/2000/svg"
 width="260.000000pt" height="260.000000pt" viewBox="0 0 260.000000 260.000000"
 preserveAspectRatio="xMidYMid meet">
<metadata>
Created by potrace 1.14, written by Peter Selinger 2001-2017
</metadata>
<g transform="translate(0.000000,260.000000) scale(0.100000,-0.100000)"
fill="#000000" stroke="none">
<path d="M927 2038 c-145 -145 -277 -284 -295 -309 -35 -51 -71 -137 -78 -184
-11 -69 -5 -177 11 -240 12 -43 75 -165 86 -165 5 0 9 -4 9 -9 0 -13 529 -541
534 -533 2 4 3 64 2 134 l-1 128 -200 199 c-128 129 -208 217 -223 246 -48 94
-42 219 14 305 12 19 110 122 217 229 l194 193 1 100 c1 54 4 103 7 108 3 5 1
11 -4 14 -5 3 -7 15 -4 26 3 11 2 20 -1 20 -4 0 -125 -118 -269 -262z"/>
<path d="M1401 2169 l-1 -131 204 -204 c202 -203 228 -236 251 -324 20 -79 -7
-197 -60 -259 -34 -39 -188 -191 -195 -191 -3 0 -5 81 -5 180 l0 179 -92 96
c-50 52 -94 95 -96 95 -3 0 -5 -253 -6 -561 l0 -562 87 -88 c48 -49 92 -89 97
-89 7 0 10 78 10 232 l-1 232 164 163 c176 177 221 230 250 296 50 112 59 264
23 360 -5 14 -7 28 -4 31 4 3 1 6 -5 6 -7 0 -12 6 -12 14 0 40 -75 128 -324
380 -151 152 -277 276 -279 276 -3 0 -6 -59 -6 -131z"/>
</g>
</svg>
